<?xml version="1.0" encoding="iso-8859-1"?>
<!-- Generator: Adobe Illustrator 16.0.0, SVG Export Plug-In . SVG Version: 6.00 Build 0)  -->
<!DOCTYPE svg PUBLIC "-//W3C//DTD SVG 1.1//EN" "http://www.w3.org/Graphics/SVG/1.1/DTD/svg11.dtd">
<svg version="1.1" id="Layer_1" xmlns="http://www.w3.org/2000/svg" xmlns:xlink="http://www.w3.org/1999/xlink" x="0px" y="0px"
	 width="595.28px" height="574px" viewBox="0 0 595.28 574" style="enable-background:new 0 0 595.28 574;" xml:space="preserve">
<rect x="107.698" y="173.473" style="fill:#555555;" width="34.409" height="54.292"/>
<rect x="107.698" y="231.88" style="fill:#555555;" width="34.409" height="49.642"/>
<rect x="107.698" y="283.973" style="fill:#555555;" width="34.409" height="191.915"/>
<rect x="107.698" y="478.245" style="fill:#555555;" width="34.409" height="14.979"/>
<rect x="107.698" y="495.384" style="fill:#555555;" width="34.409" height="17.441"/>
<rect x="107.698" y="86.414" style="fill:#555555;" width="34.409" height="83.394"/>
<rect x="149.469" y="480.089" style="fill:#555555;" width="51.916" height="32.324"/>
<rect x="149.469" y="441.638" style="fill:#555555;" width="34.539" height="32.658"/>
<rect x="149.496" y="291.036" style="fill:#555555;" width="77.305" height="32.529"/>
<rect x="190.701" y="252.382" style="fill:#555555;" width="92.266" height="32.23"/>
<rect x="149.658" y="252.382" style="fill:#555555;" width="35.115" height="32.23"/>
<rect x="149.318" y="214.93" style="fill:#555555;" width="45.057" height="30.506"/>
<rect x="197.277" y="214.988" style="fill:#555555;" width="77.23" height="30.508"/>
<rect x="278.289" y="215.099" style="fill:#555555;" width="56.506" height="30.506"/>
<rect x="63.798" y="86.414" style="fill:#555555;" width="34.409" height="27.325"/>
<rect x="63.798" y="117.536" style="fill:#555555;" width="34.409" height="52.272"/>
<rect x="63.798" y="174.722" style="fill:#555555;" width="34.409" height="14.039"/>
<rect x="63.798" y="193.758" style="fill:#555555;" width="34.409" height="46.984"/>
<rect x="63.798" y="245.176" style="fill:#555555;" width="34.409" height="54.425"/>
<rect x="63.798" y="303.06" style="fill:#555555;" width="34.409" height="185.795"/>
<rect x="63.798" y="492.462" style="fill:#555555;" width="34.409" height="8.447"/>
<rect x="63.798" y="504.376" style="fill:#555555;" width="34.409" height="8.449"/>
<rect x="64.652" y="519.417" style="fill:#555555;" width="174.912" height="29.727"/>
<g>
	<path style="fill:#F26725;" d="M75.795,73.59c9.064-20.833,18.119-41.67,27.186-62.505c8.344,19.183,16.686,38.365,25.027,57.546
		c0.787,1.762,1.503,3.559,2.337,5.298c3.887,8.941,7.739,17.896,11.636,26.833c0.038,0.086,0.111,0.258,0.148,0.345
		c-13.054-5.372-26.1-10.756-39.154-16.125c-13.053,5.38-26.109,10.757-39.164,16.135l0.039-0.088
		"/>
</g>
<g>
	<path style="fill:#F26725;" d="M337.298,215.179c6.83,0,13.667,0.028,20.499-0.046c6.146,0.074,12.306-0.22,18.432,0.322
		c30.698,2.241,60.674,13.281,85.514,31.447c24.12,17.536,43.422,41.632,55.185,69.041c12.882,29.758,16.648,63.313,10.981,95.227
		c-4.826,27.488-16.787,53.67-34.323,75.377c-17.788,22.119-41.291,39.609-67.632,50.199c-16.409,6.627-33.89,10.584-51.55,11.707
		c-9.518,0.74-19.054-0.014-28.581,0.189c-2.751,0.307-5.516,0.16-8.271,0.188c-31.512-0.01-63.027-0.02-94.543-0.025
		c-0.015-9.824,0.004-19.65-0.01-29.477c36.898-0.238,73.797-0.383,110.695-0.617c0.174-0.082,0.524-0.248,0.698-0.33
		c15.378,0.893,30.928-0.512,45.782-4.67c27.26-7.484,51.982-23.768,69.725-45.766c19.069-23.404,29.994-53.303,30.362-83.496
		c0.395-18.848-3.184-37.771-10.465-55.16c-11.091-26.678-30.923-49.6-55.696-64.459c-19.496-11.763-42.004-18.604-64.775-19.357
		c-10.673-0.042-21.341-0.318-32.013-0.286C337.298,235.185,337.32,225.185,337.298,215.179z"/>
	<path style="fill:#F26725;" d="M329.284,251.925c9.349-0.06,18.699-0.023,28.044-0.313c5.06,0.078,10.129-0.299,15.18,0.175
		c18.915,1.49,37.487,7.19,53.965,16.597c26.502,14.997,47.434,39.558,57.959,68.14c11.785,31.52,10.682,67.613-3.092,98.328
		c-10.41,23.488-27.946,43.734-49.678,57.434c-20.062,12.727-43.675,19.768-67.431,20.1c-4.287,0.119-8.575-0.203-12.861-0.166
		c-49.412,0.143-98.827,0.082-148.238,0.193c0.005-10.82,0-21.641,0.005-32.459c52.02-0.18,104.038-0.473,156.058-0.672
		c4.113-0.051,8.244,0.102,12.344-0.363c18.18-1.721,35.803-8.76,50.201-19.982c12.563-9.73,22.702-22.578,29.221-37.072
		c8.248-18.209,10.571-38.979,6.799-58.586c-3.211-16.91-11.077-32.887-22.444-45.804c-16.772-19.242-41.379-31.567-66.906-32.96
		c-27.132,0.096-54.263,0.086-81.396,0.197c-0.005-10.838,0-21.677-0.005-32.514C301.099,252.082,315.188,252.031,329.284,251.925z"
		/>
	<path style="fill:#F26725;" d="M231.506,290.88c40.414-0.166,80.822-0.464,121.235-0.648c5.056,0.009,10.11-0.226,15.163,0.129
		c16.491,1.021,32.656,6.675,46.208,16.114c14.403,9.95,25.848,24.116,32.524,40.294c7.171,17.182,8.831,36.572,4.828,54.742
		c-3.279,15.043-10.474,29.201-20.654,40.75c-11.583,13.248-27.071,23.037-44.02,27.783c-9.555,2.742-19.546,3.715-29.463,3.369
		c-49.982,0.238-99.969,0.475-149.95,0.721c-7.153,0.053-14.306-0.027-21.454,0.162c0-10.865-0.057-21.73,0.021-32.592
		c13.59,0.158,27.174-0.09,40.764-0.094c43.076-0.152,86.152-0.373,129.229-0.52c5.363-0.023,10.77,0.078,16.064-0.9
		c15.052-2.508,28.898-11.203,37.841-23.545c9.34-12.654,13.144-29.123,10.548-44.617c-2.465-15.502-11.486-29.773-24.324-38.775
		c-10.719-7.623-24.042-11.469-37.175-10.719c-42.46,0.254-84.925,0.537-127.386,0.814
		C231.496,312.524,231.496,301.704,231.506,290.88z"/>
</g>
</svg>
