<?xml version="1.0" encoding="iso-8859-1"?>
<!-- Generator: Adobe Illustrator 19.0.0, SVG Export Plug-In . SVG Version: 6.00 Build 0)  -->
<svg version="1.1" id="Capa_1" xmlns="http://www.w3.org/2000/svg" xmlns:xlink="http://www.w3.org/1999/xlink" x="0px" y="0px"
	 viewBox="0 0 496 496" style="enable-background:new 0 0 496 496;" xml:space="preserve" fill="#00bddb">
<g>
	<g>
		<g>
			<path d="M112,64h272v224h16V40c0-22.056-17.944-40-40-40H136c-22.056,0-40,17.944-40,40v40h16V64z M112,40
				c0-13.232,10.768-24,24-24h224c13.232,0,24,10.768,24,24v8H112V40z"/>
			<rect x="104" y="208" width="16" height="192"/>
			<path d="M96,456c0,22.056,17.944,40,40,40h224c22.056,0,40-17.944,40-40v-40H96V456z M112,432h272v24c0,13.232-10.768,24-24,24
				H136c-13.232,0-24-10.768-24-24V432z"/>
			<rect x="208" y="448" width="80" height="16"/>
			<path d="M144,240c0,57.344,46.656,104,104,104s104-46.656,104-104s-46.656-104-104-104S144,182.656,144,240z M336,240
				c0,48.52-39.48,88-88,88c-48.52,0-88-39.48-88-88c0-48.52,39.48-88,88-88S336,191.48,336,240z"/>
			<path d="M240,168v16c-17.648,0-32,14.352-32,32s14.352,32,32,32h16c8.824,0,16,7.176,16,16c0,8.824-7.176,16-16,16h-16
				c-8.824,0-16-7.176-16-16h-16c0,17.648,14.352,32,32,32v16h16v-16c17.648,0,32-14.352,32-32s-14.352-32-32-32h-16
				c-8.824,0-16-7.176-16-16c0-8.824,7.176-16,16-16h16c8.824,0,16,7.176,16,16h16c0-17.648-14.352-32-32-32v-16H240z"/>
			<polygon points="480,384 480,256 464,256 464,384 448,384 448,288 432,288 432,384 416,384 416,320 400,320 400,384 384,384 
				384,304 368,304 368,384 352,384 352,336 336,336 336,384 320,384 320,400 496,400 496,384 			"/>
			<path d="M96,168c0,13.232,10.768,24,24,24s24-10.768,24-24c0-3.696-0.904-7.152-2.408-10.28l32.12-32.12
				c3.136,1.496,6.592,2.4,10.288,2.4c13.232,0,24-10.768,24-24s-10.768-24-24-24s-24,10.768-24,24c0,3.696,0.904,7.152,2.408,10.28
				l-32.12,32.12c-3.136-1.496-6.592-2.4-10.288-2.4c-4.344,0-8.368,1.248-11.888,3.272l-21.776-18.664
				C87.376,125.928,88,123.04,88,120c0-13.232-10.768-24-24-24s-24,10.768-24,24c0,7.04,3.104,13.32,7.952,17.72L25.28,192.128
				C24.848,192.104,24.44,192,24,192c-13.232,0-24,10.768-24,24s10.768,24,24,24s24-10.768,24-24c0-7.04-3.104-13.32-7.952-17.72
				l22.672-54.416C63.152,143.896,63.56,144,64,144c4.344,0,8.368-1.248,11.888-3.272l21.776,18.664
				C96.624,162.072,96,164.96,96,168z M184,96c4.408,0,8,3.592,8,8s-3.592,8-8,8s-8-3.592-8-8S179.592,96,184,96z M120,160
				c4.408,0,8,3.592,8,8s-3.592,8-8,8s-8-3.592-8-8S115.592,160,120,160z M24,224c-4.408,0-8-3.592-8-8s3.592-8,8-8s8,3.592,8,8
				S28.408,224,24,224z M64,128c-4.408,0-8-3.592-8-8s3.592-8,8-8s8,3.592,8,8C72,124.408,68.408,128,64,128z"/>
		</g>
	</g>
</g>
<g>
</g>
<g>
</g>
<g>
</g>
<g>
</g>
<g>
</g>
<g>
</g>
<g>
</g>
<g>
</g>
<g>
</g>
<g>
</g>
<g>
</g>
<g>
</g>
<g>
</g>
<g>
</g>
<g>
</g>
</svg>
